<?xml version="1.0" standalone="no"?>
<!DOCTYPE svg PUBLIC "-//W3C//DTD SVG 20010904//EN"
 "http://www.w3.org/TR/2001/REC-SVG-20010904/DTD/svg10.dtd">
<svg version="1.0" xmlns="http://www.w3.org/2000/svg"
 width="700.000000pt" height="700.000000pt" viewBox="0 0 700.000000 700.000000"
 preserveAspectRatio="xMidYMid meet">
<metadata>
Created by potrace 1.11, written by Peter Selinger 2001-2013
</metadata>
<g transform="translate(0.000000,700.000000) scale(0.100000,-0.100000)"
fill="#000000" stroke="none">
<path d="M2 3501 l3 -2446 1401 -1 1400 0 -1 380 c0 210 3 388 7 397 6 14 78
16 720 16 l714 0 0 -396 0 -396 1377 -1 1377 0 0 2446 0 2446 -3500 0 -3500 0
2 -2445z m2372 1154 c-52 -164 -136 -423 -149 -460 -19 -56 -117 -358 -230
-710 -53 -165 -109 -338 -125 -385 -15 -47 -85 -260 -155 -475 -70 -214 -142
-435 -160 -490 -18 -55 -79 -239 -135 -410 -56 -170 -103 -311 -105 -313 -7
-8 -15 3282 -8 3304 2 7 176 10 547 10 l542 0 -22 -71z m3313 -510 c10 -1535
8 -2675 -5 -2634 -1 4 -22 64 -46 135 -62 180 -246 743 -496 1514 -67 206
-132 407 -145 445 -34 103 -253 777 -282 870 -14 44 -29 89 -33 100 -16 38
-40 119 -40 131 0 18 26 19 564 19 l479 0 4 -580z m-2154 370 c75 -274 232
-866 252 -945 7 -30 32 -127 55 -215 80 -306 109 -430 100 -438 -12 -13 -877
-20 -885 -7 -3 5 8 65 26 133 17 67 34 133 36 147 3 14 7 32 10 40 3 8 7 20 8
25 6 22 137 526 159 610 13 50 41 153 61 230 20 77 48 181 61 230 13 50 36
136 50 193 15 57 30 100 35 95 4 -4 19 -48 32 -98z"/>
</g>
</svg>
