<?xml version="1.0" standalone="no"?>
<!DOCTYPE svg PUBLIC "-//W3C//DTD SVG 20010904//EN"
 "http://www.w3.org/TR/2001/REC-SVG-20010904/DTD/svg10.dtd">
<svg version="1.0" xmlns="http://www.w3.org/2000/svg"
 width="700.000000pt" height="700.000000pt" viewBox="0 0 700.000000 700.000000"
 preserveAspectRatio="xMidYMid meet">
<metadata>
Created by potrace 1.11, written by Peter Selinger 2001-2013
</metadata>
<g transform="translate(0.000000,700.000000) scale(0.100000,-0.100000)"
fill="#000000" stroke="none">
<path d="M4 3500 c2 -1345 4 -2445 5 -2445 53 -4 2791 1 2792 5 1 3 2 175 4
383 2 269 6 382 14 390 8 8 201 12 719 13 l708 2 -1 -394 c0 -256 4 -394 10
-395 6 -1 625 -2 1378 -3 l1367 -2 0 2446 0 2446 -3500 0 -3500 0 4 -2446z
m2386 1215 c0 -6 -16 -60 -35 -121 -37 -111 -99 -304 -205 -629 -32 -99 -104
-322 -160 -495 -56 -173 -112 -346 -125 -385 -13 -38 -80 -245 -150 -460 -238
-731 -387 -1180 -395 -1188 -10 -12 -22 3159 -12 3250 5 41 -35 38 585 39 359
0 497 -3 497 -11z m3285 6 c12 -1 14 -379 14 -1996 0 -627 0 -1150 0 -1162 2
-67 -27 4 -134 330 -234 714 -265 808 -400 1222 -75 231 -144 443 -153 470 -9
28 -17 52 -17 55 -1 3 -4 12 -8 20 -3 8 -32 98 -65 200 -33 102 -106 327 -162
500 -57 173 -103 324 -104 335 -1 17 7 21 59 25 50 4 940 5 970 1z m-2164
-138 c10 -26 94 -334 169 -618 17 -66 38 -145 46 -175 22 -77 63 -236 134
-515 73 -285 69 -270 76 -320 6 -40 6 -41 -27 -42 -100 -4 -752 -9 -800 -5
l-56 4 8 36 c4 21 10 48 13 62 8 44 108 430 211 820 96 361 118 446 141 535
40 153 67 245 71 245 2 0 8 -12 14 -27z"/>
</g>
</svg>
