<?xml version="1.0" encoding="utf-8"?>
<!-- Generator: Adobe Illustrator 22.1.0, SVG Export Plug-In . SVG Version: 6.00 Build 0)  -->
<svg version="1.1" id="Layer_21" xmlns="http://www.w3.org/2000/svg" xmlns:xlink="http://www.w3.org/1999/xlink" x="0px" y="0px"
	 viewBox="0 0 34 34" style="enable-background:new 0 0 34 34;" xml:space="preserve" width="34px">
<style type="text/css">
	.st0{fill:#FFFFFF;}
</style>
<title></title>
<g id="Слой_2">
	<g>
		<g>
			<path class="st0" d="M22.4,2.9H11.6c-5,0-9.1,4.1-9.1,9.1v10.9c0,5,4.1,9.1,9.1,9.1h10.9c5,0,9.1-4.1,9.1-9.1V11.9
				C31.5,6.9,27.4,2.9,22.4,2.9z M28.8,22.8c0,3.5-2.8,6.3-6.3,6.3H11.6c-3.5,0-6.3-2.8-6.3-6.3V11.9c0-3.5,2.8-6.3,6.3-6.3h10.9
				c3.5,0,6.3,2.8,6.3,6.3V22.8z"/>
		</g>
	</g>
	<g>
		<g>
			<path class="st0" d="M17,10.1c-4,0-7.2,3.2-7.2,7.2s3.2,7.2,7.2,7.2s7.2-3.2,7.2-7.2S21,10.1,17,10.1z M17,21.9
				c-2.5,0-4.5-2-4.5-4.5c0-2.5,2-4.5,4.5-4.5s4.5,2,4.5,4.5C21.5,19.8,19.5,21.9,17,21.9z"/>
		</g>
	</g>
	<g>
		<g>
			<circle class="st0" cx="24.8" cy="9.6" r="1"/>
		</g>
	</g>
</g>
</svg>
