<?xml version="1.0" encoding="UTF-8"?>
<svg width="421px" height="214px" viewBox="0 0 421 214" version="1.1" xmlns="http://www.w3.org/2000/svg" xmlns:xlink="http://www.w3.org/1999/xlink">
    <!-- Generator: Sketch 50.2 (55047) - http://www.bohemiancoding.com/sketch -->
    <title>logo</title>
    <desc>Created with Sketch.</desc>
    <defs>
        <filter x="-6.6%" y="-12.0%" width="113.3%" height="128.4%" filterUnits="objectBoundingBox" id="filter-1">
            <feOffset dx="0" dy="4" in="SourceAlpha" result="shadowOffsetOuter1"></feOffset>
            <feGaussianBlur stdDeviation="8" in="shadowOffsetOuter1" result="shadowBlurOuter1"></feGaussianBlur>
            <feColorMatrix values="0 0 0 0 0   0 0 0 0 0   0 0 0 0 0  0 0 0 0.167798913 0" type="matrix" in="shadowBlurOuter1" result="shadowMatrixOuter1"></feColorMatrix>
            <feMerge>
                <feMergeNode in="shadowMatrixOuter1"></feMergeNode>
                <feMergeNode in="SourceGraphic"></feMergeNode>
            </feMerge>
        </filter>
    </defs>
    <g id="Page-1" stroke="none" stroke-width="1" fill="none" fill-rule="evenodd">
        <g id="Artboard" transform="translate(-180.000000, -30.000000)" fill-rule="nonzero">
            <g id="logo" filter="url(#filter-1)" transform="translate(196.000000, 42.000000)">
                <rect id="Rectangle-path" fill="#E90F0F" x="32" y="0" width="117" height="117"></rect>
                <polygon id="Shape" fill="#FFFFFF" points="0 9 74 9 74 33.6931912 49.1719471 33.6931912 49.1719471 109 24.8280529 109 24.8280529 33.6931912 0 33.6931912"></polygon>
                <path d="M105.145199,92.4923101 L77.1096913,92.4923101 L73.2141689,109 L48,109 L78.041573,9 L104.978191,9 L135,109 L109.143495,109 L105.145199,92.4923101 Z M100.023308,70.8691736 L91.2015607,34.9214097 L82.472705,70.8691736 L100.023308,70.8691736 Z" id="Shape" fill="#FFFFFF"></path>
                <polygon id="Shape" fill="#FFFFFF" points="107 9 181 9 181 33.6931912 156.171947 33.6931912 156.171947 109 131.828053 109 131.828053 33.6931912 107 33.6931912"></polygon>
                <polygon id="Shape" fill="#FFFFFF" points="166 9 240 9 240 33.6931912 215.171947 33.6931912 215.171947 109 190.828053 109 190.828053 33.6931912 166 33.6931912"></polygon>
                <path d="M224,59.0683506 C224,42.6503219 227.598816,29.8677563 234.796447,20.7206538 C241.994078,11.5735513 252.017115,7 264.865558,7 C278.037314,7 288.18583,11.4933135 295.311107,20.4799405 C302.436384,29.4665676 305.999348,42.0549777 306,58.2451708 C306,70.000165 304.443403,79.6385999 301.330209,87.1604754 C298.217015,94.6823509 293.719311,100.536404 287.837095,104.722635 C281.952924,108.908205 274.61971,111.00066 265.837453,111 C256.912443,111 249.526103,109.193495 243.678436,105.580485 C237.830768,101.967476 233.088949,96.2507841 229.452978,88.430411 C225.817659,80.6100379 224,70.8226844 224,59.0683506 Z M248.45578,59.2060425 C248.45578,69.3589235 249.940349,76.6532936 252.909485,81.0891529 C255.878622,85.5250123 259.918083,87.7432721 265.027866,87.7439325 C270.282359,87.7439325 274.349196,85.57157 277.228379,81.2268449 C280.107562,76.8821198 281.547153,69.0845302 281.547153,57.8340762 C281.547153,48.3673435 280.044659,41.4500577 277.039671,37.0822189 C274.034683,32.71438 269.958719,30.5304606 264.811781,30.5304606 C259.881254,30.5304606 255.922622,32.7483903 252.935885,37.1842496 C249.949148,41.6201089 248.45578,48.9607066 248.45578,59.2060425 Z" id="Shape" fill="#FFFFFF"></path>
                <path d="M293,59.0683506 C293,42.6503219 296.599141,29.8677563 303.797424,20.7206538 C310.995707,11.5735513 321.018418,7 333.865558,7 C347.037314,7 357.186156,11.4933135 364.312085,20.4799405 C371.438013,29.4665676 375.000652,42.0549777 375,58.2451708 C375,70.000165 373.443403,79.6385999 370.330209,87.1604754 C367.217015,94.6823509 362.719311,100.536404 356.837095,104.722635 C350.952924,108.908205 343.61971,111.00066 334.837453,111 C325.911791,111 318.525126,109.193495 312.677458,105.580485 C306.82979,101.967476 302.088297,96.2507841 298.452978,88.430411 C294.817659,80.6100379 293,70.8226844 293,59.0683506 Z M317.45578,59.2060425 C317.45578,69.3589235 318.940349,76.6532936 321.909485,81.0891529 C324.878622,85.5250123 328.918083,87.7432721 334.027866,87.7439325 C339.282359,87.7439325 343.349196,85.57157 346.228379,81.2268449 C349.107562,76.8821198 350.547153,69.0845302 350.547153,57.8340762 C350.547153,48.3673435 349.044659,41.4500577 346.039671,37.0822189 C343.034683,32.71438 338.960675,30.5304606 333.817647,30.5304606 C328.885816,30.5304606 324.926859,32.7483903 321.940774,37.1842496 C318.954689,41.6201089 317.459691,48.9607066 317.45578,59.2060425 Z" id="Shape" fill="#FFFFFF"></path>
                <rect id="Rectangle-path" fill="#FFFFFF" x="70" y="9" width="46" height="25"></rect>
                <path d="M173.212321,109.484451 C174.964452,106.857152 176.600542,104.702219 178.06113,103.355387 C178.936716,102.546311 179.696261,102.007578 180.221804,102.007578 C183.493024,101.805553 185.830157,105.716248 184.72057,104.971586 C182.675938,103.898024 178.878216,110.225209 176.30804,113.862633 C173.796365,117.566423 171.400731,121.540555 168.480513,126.452591 C163.397703,135.343638 159.016896,143.897977 157.614808,148.207841 C160.126483,148.545526 169.824101,137.569816 173.270822,133.929464 C173.620864,133.592755 173.854865,134.131489 173.679364,134.333513 C170.816687,138.104645 160.652986,150.36375 157.147765,151.845266 C156.38822,152.181974 155.805136,151.912607 155.278633,151.575899 C154.810631,151.306533 153.525543,149.892358 153.175501,148.882234 C153.117001,148.747551 153,148.612867 153,147.871133 C153,145.850884 155.685258,139.31777 162.813659,126.452591 C166.435881,119.924356 170.174144,114.064658 173.212321,109.484451 Z" id="Shape" fill="#FFFFFF"></path>
                <path d="M185.257865,138.703889 C183.456762,140.718452 171.716499,152 169.189226,152 C169.068691,152 168.768343,151.865696 168.647808,151.798544 C167.561021,151.194175 166,148.642396 166,147.298382 C166,139.977832 179.781446,125 190.854817,125 C193.141022,125 196.150434,126.07054 196.150434,129.231554 C196.150434,130.373139 195.609016,131.514724 195.007331,132.387701 C194.886797,132.454853 194.766262,132.387701 194.82653,132.320549 C195.122926,131.716181 195.488482,130.910356 195.488482,129.903075 C195.488482,127.887539 194.345379,126.880258 192.539337,127.014562 C189.048775,127.216018 184.65618,130.037379 180.743747,133.72977 C175.027248,139.170061 170.51313,147.632196 171.054547,147.967956 C171.175082,148.035108 171.295616,148.035108 171.476418,147.967956 C173.462274,147.229283 181.887837,140.44595 185.011856,137.490286 C186.098642,136.419746 190.007123,132.184299 191.511829,131.24417 C192.715199,130.572649 194.761322,134.266986 194.520253,135.072811 C194.223857,134.40129 188.803754,141.72184 186.997712,146.020546 C186.637096,146.960675 186.396027,147.7665 186.396027,148.303716 C190.187925,147.094979 198.793302,137.890279 202.524933,133.997405 C202.821329,133.661644 203.126618,134.198861 202.945816,134.400317 C197.709479,140.780737 187.900733,151.99708 184.289636,151.99708 C183.99324,151.99708 183.687951,151.862776 183.267068,151.594168 C182.424315,151.056951 181.281212,149.647731 181.281212,148.437047 C181.281212,147.765526 181.521293,146.959702 181.762363,145.95242 C182.489522,143.47266 184.113774,140.382691 185.257865,138.703889 Z" id="Shape" fill="#FFFFFF"></path>
                <path d="M202.432829,139.199976 C207.096601,132.775856 217.620765,123.676798 220.849379,124.947854 C221.566958,125.282343 223.659814,127.824456 223.659814,128.761994 C223.659814,134.783757 212.059774,151.04281 203.808107,151.04281 C201.47573,151.04281 198.844935,149.30347 198.844935,147.094875 C198.844935,146.760387 199.084455,146.626591 199.084455,146.827285 C199.084455,147.496262 200.164259,148.766349 201.35597,148.766349 C207.39502,148.766349 218.278463,130.967679 218.816402,127.621824 C217.799423,127.565591 205.845992,134.586942 199.622394,144.823262 C197.887836,147.634905 195.436681,151.513033 198.127356,151.848491 C197.409777,152.18298 196.811958,151.915389 196.21414,151.514003 C195.676201,151.31331 194.479582,149.908458 194.061403,148.838094 C193.881763,148.302912 194.001523,146.295012 195.736081,141.878793 C199.084455,133.515609 206.498783,121.337317 212.657592,112.170391 C214.750449,109.026199 217.081844,105.814139 219.89228,103.205128 C220.849379,102.468284 221.626838,102 222.164777,102 C225.513151,102 227.845528,105.947935 226.708788,105.21206 C225.094972,104.275492 222.404297,107.218991 218.757504,112.304187 C212.837233,120.602412 207.036721,129.301053 202.432829,139.199976 Z" id="Shape" fill="#FFFFFF"></path>
                <path d="M244.021131,126.1364 C233.445157,126.1364 221.232665,148.592126 224.504742,150.191003 C227.776819,151.72326 236.133037,141.062149 240.044949,134.265956 C239.752371,133.666377 239.168174,131.666815 239.402236,131.000616 C239.577783,130.334418 241.330373,128.334856 242.088198,128.269201 C242.672395,128.201616 243.315107,128.735541 243.431179,128.9354 C244.541057,131.000616 245.943513,132.532874 248.280299,132.333014 C252.196048,131.933295 254.357288,129.339947 255,129.401739 C254.712218,130.334418 252.370635,132.532874 249.508168,133.599757 C248.401472,133.996546 247.235359,134.199346 246.060544,134.199336 C245.183769,134.199336 244.599572,134.066096 244.306994,133.932856 C242.729951,142.794266 230.63449,152.389459 224.44047,151.987809 C221.754509,151.787949 220,149.256394 220,146.723873 C220,135.862902 232.796689,125 242.028723,125 C244.249438,125 245.183769,125.732819 245.593378,126.132538 C245.88116,126.332398 245.70945,126.332398 245.476347,126.332398 C244.897906,126.26964 244.429781,126.1364 244.021131,126.1364 Z" id="Shape" fill="#FFFFFF"></path>
                <path d="M255.62356,125.489065 C255.981839,125.210282 256.219713,125.140587 256.458566,125.140587 C257.889724,125.140587 260.155889,127.858717 260.155889,129.602118 C260.155889,129.880901 259.976749,129.532422 259.499044,129.462727 C258.605304,129.393031 256.518279,132.111161 254.728841,134.899997 C253.119522,137.409041 251.032497,140.685746 249.780477,143.264485 C252.940382,138.454475 258.902891,132.599031 264.031373,128.276891 C266.356271,126.325413 268.142772,125.145637 269.397728,125.001195 C270.053594,124.9315 272.49792,127.930433 272.080906,128.485978 C270.769174,130.089988 265.815916,135.17878 263.852233,140.61605 C266.71455,140.337268 270.828887,137.199954 274.522294,133.365683 C274.582008,133.295987 274.940287,133.226292 275,133.365683 C273.923205,135.039389 266.771327,142.846311 262.65699,142.846311 C261.580195,142.846311 259.794673,140.406963 259.794673,139.570616 C259.794673,137.618127 261.702558,133.57477 263.253143,131.483901 C257.771277,135.248476 254.964757,138.036301 250.910134,143.264485 C247.869655,147.102796 244.291759,153.232982 245.603491,153.929939 C243.873766,154.418818 242.442608,152.257243 242.025594,150.305765 C241.906168,149.678504 242.204734,148.353277 242.920313,146.750277 C244.411185,142.776615 247.094363,137.962565 249.478975,133.993954 C251.568936,130.438466 254.132688,126.882978 255.62356,125.489065 Z" id="Shape" fill="#FFFFFF"></path>
                <path d="M287.255294,138.701943 C285.45048,140.716505 273.721663,152 271.1888,152 C271.068281,152 270.767973,151.865696 270.647455,151.798544 C269.560813,151.194175 268,148.642396 268,147.298382 C268,139.977832 281.779607,125 292.851499,125 C295.138387,125 298.146409,126.07054 298.146409,129.231554 C298.146409,130.373139 297.605064,131.514724 297.003459,132.387701 C296.882941,132.454853 296.762422,132.387701 296.822681,132.320549 C297.119038,131.716181 297.484545,130.910356 297.484545,129.903075 C297.484545,127.887539 296.341595,126.880258 294.535794,127.014562 C291.046686,127.216018 286.653689,130.037379 282.742766,133.72977 C277.026042,139.170061 272.512527,147.632196 273.05486,147.967956 C273.174391,148.035108 273.294909,148.035108 273.475687,147.967956 C275.461278,147.229283 283.885716,140.44595 287.014257,137.490286 C288.100899,136.419746 292.008858,132.184299 293.513363,131.24417 C294.716572,130.572649 296.762422,134.266986 296.522373,135.072811 C296.221077,134.40129 290.805649,141.72184 289.000836,146.020546 C288.63928,146.960675 288.398243,147.7665 288.398243,148.303716 C292.189636,147.094979 300.793863,137.890279 304.524996,133.997405 C304.821353,133.661644 305.126601,134.198861 304.945823,134.400317 C299.710185,140.780737 289.902748,151.99708 286.292134,151.99708 C285.995777,151.99708 285.690529,151.862776 285.269703,151.594168 C284.427061,151.056951 283.284112,149.647731 283.284112,148.437047 C283.284112,147.765526 283.524161,146.959702 283.765198,145.95242 C284.487321,143.470713 286.112344,140.380745 287.255294,138.701943 Z" id="Shape" fill="#FFFFFF"></path>
                <path d="M321.355547,103.355175 C322.241419,102.546226 323.009886,102.007577 323.542574,102.007577 C326.852224,101.805584 329.215844,105.715668 328.093221,104.971122 C326.202131,103.961155 322.714919,109.34862 320.114549,113.18747 C329.630156,112.647845 342.100288,113.18747 350.55246,115.207404 C351.02499,115.342066 351.26174,115.476728 350.55246,115.409397 C338.849826,114.264768 328.034034,114.336002 318.163301,116.015377 C315.977244,119.113584 314.026967,122.48014 311.662377,126.456579 C306.519854,135.346238 302.087582,143.899242 300.669022,148.208434 C303.211175,148.546065 313.021749,137.572069 316.508962,133.932285 C316.863117,133.595629 317.099867,134.134278 316.922304,134.336272 C314.026967,138.106814 303.742892,150.364005 300.196492,151.84529 C299.428025,152.181945 298.83809,151.912621 298.305403,151.575965 C297.832873,151.306641 296.531717,149.892687 296.177563,148.882721 C296.118375,148.748058 296,148.613396 296,147.871778 C296,145.851844 298.659557,139.252419 305.92992,126.456579 C307.525072,123.696003 309.23957,120.732458 311.425627,117.432258 C305.811545,118.712525 302.324332,121.944419 303.857386,122.954385 C302.911356,122.954385 300.901891,121.675094 300.724329,119.520498 C300.488549,116.489622 306.989473,114.604351 313.608773,113.729046 C318.222489,106.856393 319.877799,104.701798 321.355547,103.355175 Z" id="Shape" fill="#FFFFFF"></path>
                <path d="M334.020473,126.1364 C323.444789,126.1364 311.232631,148.592126 314.504618,150.191003 C317.777565,151.72326 326.132595,141.062149 330.044399,134.265956 C329.756626,133.666377 329.168608,131.666815 329.401705,131.000616 C329.577247,130.334418 331.329789,128.334856 332.087593,128.269201 C332.671774,128.201616 333.314468,128.735541 333.430537,128.9354 C334.540384,131.000616 335.942802,132.532874 338.280483,132.333014 C342.195165,131.933295 344.357305,129.339947 345,129.401739 C344.70743,130.334418 342.370707,132.532874 339.507359,133.599757 C338.400713,133.996621 337.234619,134.199422 336.05983,134.199336 C335.184038,134.199336 334.598898,134.066096 334.307288,133.932856 C332.729328,142.794266 320.634198,152.389459 314.441308,151.987809 C311.75542,151.787949 310,149.256394 310,146.723873 C310,135.862902 322.796338,125 332.02812,125 C334.248774,125 335.184038,125.732819 335.592677,126.132538 C335.885247,126.332398 335.709705,126.332398 335.475649,126.332398 C334.893387,126.26964 334.430071,126.1364 334.020473,126.1364 Z" id="Shape" fill="#FFFFFF"></path>
                <path d="M347.624358,125.489065 C347.981662,125.210282 348.220517,125.140587 348.458393,125.140587 C349.889565,125.140587 352.15575,127.858717 352.15575,129.602118 C352.15575,129.880901 351.976609,129.532422 351.499878,129.462727 C350.605151,129.393031 348.518106,132.111161 346.729631,134.899997 C345.119317,137.409041 343.032273,140.685746 341.780242,143.264485 C344.940176,138.454475 350.903719,132.599031 356.03127,128.276891 C358.35717,126.325413 360.142708,125.145637 361.397676,125.001195 C362.053548,124.9315 364.498875,127.930433 364.080879,128.485978 C362.769134,130.089988 357.81583,135.17878 355.853108,140.61605 C358.714473,140.337268 362.828848,137.199954 366.523269,133.365683 C366.582983,133.295987 366.940286,133.226292 367,133.365683 C365.923195,135.039389 358.77125,142.846311 354.656875,142.846311 C353.58007,142.846311 351.794531,140.406963 351.794531,139.570616 C351.794531,137.618127 353.703413,133.57477 355.253034,131.483901 C349.771116,135.248476 346.96457,138.036301 342.909909,143.264485 C339.869402,147.102796 336.291472,153.232982 337.603217,153.929939 C335.874455,154.418818 334.443283,152.257243 334.025287,150.305765 C333.906838,149.678504 334.204428,148.353277 334.920014,146.750277 C336.4109,142.776615 339.094103,137.962565 341.478737,133.993954 C343.569697,130.438466 346.133472,126.882978 347.624358,125.489065 Z" id="Shape" fill="#FFFFFF"></path>
                <path d="M380.816392,141.028622 C376.222458,147.561079 366.85961,166.755415 363.385157,174.231535 C368.037096,166.890085 376.576284,157.934549 378.283541,157.326584 C378.573563,157.326584 378.573563,157.730593 378.573563,157.730593 C370.152317,165.408718 362.379751,179.551965 361.732037,182.784037 C361.614095,182.918707 361.378211,182.986042 361.084323,182.986042 C358.728385,183.255381 357.845754,179.551965 358.021701,178.338961 C358.198613,176.318916 359.43507,173.355206 360.495581,170.527143 C363.557237,162.849018 371.565686,145.002354 379.86899,134.092157 C373.921624,141.028622 365.61832,151.130802 362.081029,151.93882 L361.615062,151.93882 C360.672493,151.93882 358.847294,150.120779 358.847294,148.503767 C358.847294,145.608368 362.085863,138.806572 365.442374,133.485167 C367.444486,130.185759 369.859395,127.154715 371.331736,125.808018 C371.537364,125.561866 371.836608,125.415085 372.155396,125.404009 C373.568765,125.404009 375.806761,128.030068 375.806761,129.78175 C375.806761,130.05109 375.629848,129.714415 375.159047,129.647081 C374.216479,129.512411 371.802537,132.744484 369.800424,135.775528 C366.796772,140.220604 363.912029,146.147047 363.912029,148.099758 C366.737801,146.753061 372.744138,140.691948 375.512873,137.593569 C378.634467,134.159492 383.227434,128.366743 386.466003,125.404009 C386.819829,125.067335 387.054746,125 387.349601,125 C388.703033,125 391,127.693394 391,129.377741 C391,129.647081 390.765083,129.310406 390.352286,129.243072 C389.881485,129.175737 389.11583,129.78175 388.291203,130.791773 C385.82119,133.755482 383.407248,137.391564 380.816392,141.028622 Z" id="Shape" fill="#FFFFFF"></path>
            </g>
        </g>
    </g>
</svg>