<svg version="1" xmlns="http://www.w3.org/2000/svg" width="933.333" height="933.333" viewBox="0 0 700.000000 700.000000"><path d="M0 350v251.8l126.5.1c69.6 0 126.5-.2 126.5-.4 0-.4 3.5-14.2 15.9-62.3 2.7-10.7 5.2-19.6 5.5-20 .5-.4 133.3-.7 149.7-.3l3.5.1 2.2 8.7c1.2 4.9 4 15.3 6.1 23.3 2.1 8 6 22.7 8.7 32.7l4.8 18.1 125.3.1H700V98.1H0V350zm238.3-126.7c-.3 1.3-6.8 21.4-22.3 68.7-8.2 25-19.6 60.3-25.5 78.5-5.9 18.1-11 33.7-11.3 34.5-.3.8-.6 1.9-.8 2.5-.1.5-2.2 7.1-4.7 14.5s-10.4 31.5-17.5 53.5c-7.2 22-14.8 45.2-16.9 51.5l-3.8 11.5-.3-157.4c-.1-95.3.2-157.7.7-158 1.4-.9 102.6-.7 102.4.2zm326.5 148.6c.1 82.2 0 149.3-.2 149-.2-.2-2.5-6.9-5.1-14.9-2.5-8-5-15.4-5.4-16.5-.5-1.1-2.5-7-4.4-13-4.4-13.9-24.4-75.4-30.7-94.5-2.6-8-10-30.7-16.5-50.5-11.8-36.3-15.8-48.6-28.3-87-3.8-11.6-6.8-21.2-6.7-21.5.2-.3 22.1-.5 48.7-.5h48.3l.3 149.4zM352.4 232.5c.3 1.6 2.1 9.1 4.2 16.5 2 7.4 3.7 13.9 3.8 14.5.4 1.8 2.6 9.9 3.6 13.5 1.1 3.5 9.6 35.6 13 48.5 1 3.8 3 11.3 4.4 16.5 4.9 18.5 6.7 25.5 7.1 27 .2.8 2.6 10 5.4 20.3 2.8 10.4 5.1 19.2 5.1 19.7 0 .4-21.4.8-47.6.9h-47.5l.6-3.2c.6-2.8 9.7-37.3 23.5-89.7 2.1-8 5.4-20.8 7.5-28.5 2-7.7 4.9-18.7 6.5-24.5 1.6-5.8 3.1-11.6 3.3-13 .8-4 6-22.1 6.2-21.8.2.2.6 1.6.9 3.3z"/></svg>