<?xml version="1.0" standalone="no"?>
<!DOCTYPE svg PUBLIC "-//W3C//DTD SVG 20010904//EN"
 "http://www.w3.org/TR/2001/REC-SVG-20010904/DTD/svg10.dtd">
<svg version="1.0" xmlns="http://www.w3.org/2000/svg"
 width="671.000000pt" height="671.000000pt" viewBox="0 0 671.000000 671.000000"
 preserveAspectRatio="xMidYMid meet">
<metadata>
Created by potrace 1.11, written by Peter Selinger 2001-2013
</metadata>
<g transform="translate(0.000000,671.000000) scale(0.100000,-0.100000)"
fill="#000000" stroke="none">
<path d="M0 3355 l0 -2345 1345 0 1345 0 0 380 0 380 690 0 690 0 0 -380 0
-380 1320 0 1320 0 0 2345 0 2345 -3355 0 -3355 0 0 -2345z m2260 1058 c-121
-382 -994 -3061 -1001 -3073 -5 -8 -9 706 -9 1588 l0 1602 524 0 524 0 -38
-117z m3193 -785 c10 -1285 9 -2204 -2 -2192 -5 5 -123 358 -261 784 -443
1365 -741 2281 -747 2296 -4 12 68 14 499 14 l505 0 6 -902z m-1872 -26 c117
-441 209 -806 205 -809 -4 -4 -200 -9 -437 -11 -346 -4 -429 -2 -429 9 0 12
50 203 185 714 204 770 245 925 246 932 2 24 37 -104 230 -835z"/>
</g>
</svg>
